<svg xmlns="http://www.w3.org/2000/svg" width="210" height="260" viewBox="0 0 210 260" fill="none">
    
    
      <g transform="translate(35 0)">
    <path d="M66 122c-22-5-40-17-50-35C7 71 8 49 18 31c10-17 27-29 47-31-7 16-12 33-14 50-3 25 0 49 15 72Z" fill="#16a34a" />
    <path d="M70 122c-5-30-3-55 6-78 8-21 22-39 40-52 12 14 18 32 17 52-1 35-24 64-63 78Z" fill="#4ade80" />
    <path d="M46 27c-7 17-10 35-8 53 1 11 4 22 9 32" fill="none" stroke="#ecfccb" stroke-linecap="round" stroke-width="5" />
    <g transform="translate(20 18) rotate(-18 50 42)">
      <ellipse cx="79" cy="23" rx="10" ry="7" fill="#ffffff" />
      <ellipse cx="57" cy="35" rx="18" ry="13" fill="#ffffff" />
      <ellipse cx="33" cy="45" rx="13" ry="10" fill="#ffffff" />
      <circle cx="83" cy="22" r="2" fill="#4ade80" />
      <path d="M84 17c7-9 14-13 22-13M84 23c9-2 18-1 27 4" fill="none" stroke="#ffffff" stroke-linecap="round" stroke-width="4" />
      <path d="M42 33 18 18M56 36 28 25M70 37 44 30M44 49 17 61M58 50 31 69M72 48 46 79" fill="none" stroke="#ffffff" stroke-linecap="round" stroke-width="4.5" />
    </g></g>
      <text x="84" y="168" text-anchor="middle" fill="#f8fafc" font-family="Arial, Helvetica, sans-serif" font-size="54" font-weight="700">eco</text>
      <text x="150" y="168" text-anchor="middle" fill="#60a5fa" font-family="Arial, Helvetica, sans-serif" font-size="54" font-weight="700">pest</text>
      <text x="105" y="210" text-anchor="middle" fill="#dbeafe" font-family="Arial, Helvetica, sans-serif" font-size="24" font-weight="700">Pest Control</text>
      <text x="105" y="238" text-anchor="middle" fill="#dbeafe" font-family="Arial, Helvetica, sans-serif" font-size="24" font-weight="700">Team</text>
  </svg>