<svg xmlns="http://www.w3.org/2000/svg" width="390" height="140" viewBox="0 0 390 140" fill="none">
    
    
      
    <path d="M66 122c-22-5-40-17-50-35C7 71 8 49 18 31c10-17 27-29 47-31-7 16-12 33-14 50-3 25 0 49 15 72Z" fill="#0b6b3b" />
    <path d="M70 122c-5-30-3-55 6-78 8-21 22-39 40-52 12 14 18 32 17 52-1 35-24 64-63 78Z" fill="#22c55e" />
    <path d="M46 27c-7 17-10 35-8 53 1 11 4 22 9 32" fill="none" stroke="#dcfce7" stroke-linecap="round" stroke-width="5" />
    <g transform="translate(20 18) rotate(-18 50 42)">
      <ellipse cx="79" cy="23" rx="10" ry="7" fill="#ffffff" />
      <ellipse cx="57" cy="35" rx="18" ry="13" fill="#ffffff" />
      <ellipse cx="33" cy="45" rx="13" ry="10" fill="#ffffff" />
      <circle cx="83" cy="22" r="2" fill="#22c55e" />
      <path d="M84 17c7-9 14-13 22-13M84 23c9-2 18-1 27 4" fill="none" stroke="#ffffff" stroke-linecap="round" stroke-width="4" />
      <path d="M42 33 18 18M56 36 28 25M70 37 44 30M44 49 17 61M58 50 31 69M72 48 46 79" fill="none" stroke="#ffffff" stroke-linecap="round" stroke-width="4.5" />
    </g>
      <text x="145" y="70" fill="#0f172a" font-family="Arial, Helvetica, sans-serif" font-size="58" font-weight="700">eco</text>
      <text x="232" y="70" fill="#2f87d8" font-family="Arial, Helvetica, sans-serif" font-size="58" font-weight="700">pest</text>
      <text x="145" y="102" fill="#475569" font-family="Arial, Helvetica, sans-serif" font-size="24" font-weight="700">Pest Control Team</text>
  </svg>