<svg width="335" height="100" viewBox="0 0 335 100" fill="none" xmlns="http://www.w3.org/2000/svg" role="img" aria-label="إيكوبست EcoPest">
  <path d="M285 6C264.4 6 249 21.4 249 41.1c0 22.8 24.3 40.5 33 46.2a5.6 5.6 0 0 0 6 0c8.7-5.7 33-23.4 33-46.2C321 21.4 305.6 6 285 6Zm0 12c13.8 0 24 9.8 24 23.1 0 13.1-11.7 25.4-19.4 31.8a7.2 7.2 0 0 1-9.2 0C272.7 66.5 261 54.2 261 41.1 261 27.8 271.2 18 285 18Z" fill="#0F766E"/>
  <path d="M263 60h14.1V42.6c0-5 3.4-8.2 7.9-8.2s7.9 3.2 7.9 8.2V60H307V42.6C307 30.4 297.8 22 285 22s-22 8.4-22 20.6V60Zm18.1-15.2h7.8v8h-7.8v-8Z" fill="#14B8A6"/>
  <text x="220" y="48" text-anchor="end" font-family="Tajawal, Arial, sans-serif" font-size="42" font-weight="800" fill="#0F172A">إيكوبست</text>
  <text x="220" y="74" text-anchor="end" font-family="Tajawal, Arial, sans-serif" font-size="18" font-weight="700" letter-spacing="1.4" fill="#0F766E">ECOPEST FIELD</text>
</svg>
